<?xml version="1.0" standalone="no"?>
<!DOCTYPE svg PUBLIC "-//W3C//DTD SVG 20010904//EN"
 "http://www.w3.org/TR/2001/REC-SVG-20010904/DTD/svg10.dtd">
<svg version="1.0" xmlns="http://www.w3.org/2000/svg"
 width="890.000000pt" height="890.000000pt" viewBox="0 0 890.000000 890.000000"
 preserveAspectRatio="xMidYMid meet">
<metadata>
Created by potrace 1.14, written by Peter Selinger 2001-2017
</metadata>
<g transform="translate(0.000000,890.000000) scale(0.100000,-0.100000)"
fill="#000000" stroke="none">
<path d="M2207 5984 c-3 -3 -61 -8 -129 -10 -68 -2 -141 -6 -163 -9 -22 -4
-51 -8 -65 -9 -14 -2 -25 -4 -25 -6 0 -1 -11 -3 -25 -5 -37 -4 -112 -25 -140
-40 -14 -8 -43 -22 -65 -31 -22 -10 -43 -22 -46 -27 -3 -5 -9 -8 -13 -7 -4 1
-22 -8 -42 -19 -19 -11 -37 -20 -41 -20 -3 0 -9 -3 -12 -8 -3 -5 -26 -24 -50
-43 -40 -31 -75 -66 -164 -161 -15 -16 -27 -34 -27 -39 0 -4 -4 -10 -9 -12 -5
-1 -11 -10 -13 -18 -2 -8 -9 -21 -16 -28 -7 -8 -10 -18 -7 -23 4 -5 2 -9 -2
-9 -9 0 -36 -63 -33 -76 1 -4 -3 -10 -8 -13 -24 -15 -27 -128 -22 -820 0 -101
-3 -188 -8 -193 -5 -5 -22 -11 -38 -13 -16 -2 -29 -4 -29 -5 0 -1 -56 -5 -185
-14 -30 -2 -57 -5 -60 -6 -3 -1 -34 -2 -70 -1 -81 1 -191 -31 -244 -70 -22
-16 -38 -29 -35 -29 3 0 -18 -25 -47 -55 -29 -30 -65 -71 -81 -92 -15 -21 -31
-40 -34 -43 -17 -13 -78 -129 -83 -156 -2 -16 -5 -29 -6 -29 -2 0 -4 -36 -6
-80 -2 -44 -4 -84 -5 -90 -2 -38 12 -149 20 -159 6 -7 12 -21 14 -32 8 -40 40
-114 50 -114 5 0 5 -4 2 -10 -3 -5 -2 -10 2 -10 5 0 14 -12 20 -27 17 -40 45
-85 66 -104 9 -9 17 -21 17 -28 0 -6 4 -11 9 -11 5 0 12 -9 16 -19 7 -22 169
-191 184 -191 5 0 12 -8 15 -18 3 -9 22 -26 42 -37 34 -18 46 -28 106 -81 15
-13 30 -24 33 -24 2 0 28 -15 57 -33 29 -18 71 -42 93 -52 22 -11 42 -22 45
-25 11 -11 98 -49 148 -65 56 -18 82 -37 78 -57 -3 -23 -38 -68 -47 -62 -5 3
-9 1 -9 -4 0 -5 -16 -20 -35 -33 -19 -13 -35 -29 -35 -35 0 -6 -11 -16 -24
-23 -13 -7 -29 -24 -35 -37 -6 -13 -15 -24 -21 -24 -6 0 -9 -4 -6 -8 2 -4 -9
-17 -25 -27 -16 -11 -29 -24 -29 -28 0 -5 -6 -14 -13 -22 -27 -29 -62 -79 -57
-81 3 -2 -4 -10 -15 -19 -11 -9 -13 -13 -5 -9 12 6 12 4 -1 -12 -17 -19 -110
-194 -104 -194 2 0 -17 -39 -42 -87 -25 -49 -54 -105 -65 -125 -17 -35 -36
-107 -42 -160 -1 -13 -6 -30 -11 -38 -12 -20 -16 -406 -4 -455 15 -62 22 -98
23 -117 0 -10 3 -18 6 -18 4 0 12 -16 20 -35 8 -19 17 -35 22 -35 4 0 8 -5 8
-11 0 -6 16 -31 36 -55 20 -24 33 -44 29 -44 -5 0 47 -53 114 -119 l122 -118
-1 -54 c0 -30 -3 -76 -6 -104 -4 -27 -8 -125 -9 -218 l-4 -167 3861 0 3861 0
20 43 c15 32 20 63 20 137 0 52 -3 104 -7 115 -5 14 0 28 15 45 55 63 66 107
50 196 -14 76 -43 132 -95 187 -50 52 -55 70 -29 107 10 14 16 25 15 25 -2 0
-1 7 2 15 18 54 23 100 23 206 0 65 -3 124 -7 129 -5 6 -10 24 -12 40 -1 17
-9 36 -16 43 -7 8 -10 18 -7 23 4 5 2 9 -4 9 -5 0 -15 17 -22 38 -7 20 -19 42
-28 49 -9 7 -12 13 -6 13 5 0 -15 17 -45 37 -30 21 -58 37 -62 35 -5 -1 -8 3
-8 9 0 6 -6 9 -14 6 -7 -3 -19 0 -25 6 -21 21 -216 13 -286 -12 -33 -12 -64
-23 -70 -25 -23 -6 -91 -42 -104 -54 -8 -8 -24 -18 -35 -23 -42 -20 -66 -36
-60 -42 4 -3 -5 -9 -20 -13 -14 -3 -23 -10 -20 -15 3 -5 0 -9 -7 -9 -13 0
-111 -78 -117 -92 -2 -5 -9 -8 -15 -8 -7 -1 -28 -21 -47 -46 -19 -26 -41 -52
-47 -59 -7 -8 -13 -18 -13 -24 0 -6 -6 -11 -13 -11 -7 0 -19 -10 -27 -21 -8
-12 -27 -35 -42 -51 -16 -16 -28 -31 -28 -33 0 -3 -8 -13 -17 -23 -152 -160
-157 -164 -188 -150 -19 9 -30 26 -40 68 0 3 -5 14 -11 25 -6 11 -9 26 -8 33
1 6 2 16 3 20 0 5 34 44 74 86 96 102 97 104 97 114 0 5 11 26 25 45 88 131
144 258 161 367 3 25 8 56 11 70 4 25 4 202 0 290 -1 25 -6 48 -12 52 -6 5 -5
8 3 8 7 0 10 5 7 10 -8 13 -16 54 -20 105 -1 22 -4 40 -5 40 -1 0 -4 18 -6 40
-4 32 -13 72 -29 125 -7 24 -17 59 -19 71 -2 8 -5 21 -9 29 -3 8 -17 62 -33
120 -15 58 -30 110 -33 115 -3 6 -6 12 -7 15 -4 20 -18 67 -23 75 -3 6 -6 16
-8 24 -1 8 -7 17 -13 21 -7 4 -10 9 -9 11 2 2 -6 27 -18 54 -12 28 -22 55 -23
60 -1 6 -9 18 -18 29 -9 10 -16 20 -14 22 1 2 -5 20 -13 40 -8 20 -15 40 -15
45 0 5 -4 9 -8 9 -4 0 -16 24 -27 53 -10 28 -38 92 -62 142 l-45 90 5 112 c3
62 9 118 13 125 4 6 8 33 10 60 2 53 22 111 34 103 5 -3 14 8 22 25 7 16 16
30 20 30 4 0 6 8 6 18 0 9 9 51 20 92 19 66 21 96 18 246 -2 95 -6 176 -9 181
-3 5 -8 48 -11 97 -2 48 -10 94 -17 102 -6 8 -8 14 -4 14 4 0 2 6 -4 13 -6 8
-8 17 -4 20 3 4 2 7 -4 7 -9 0 -39 77 -35 93 1 4 -3 7 -8 7 -6 0 -10 8 -10 18
0 10 -7 27 -15 37 -23 32 -165 246 -165 250 0 4 -65 67 -135 130 -22 20 -68
54 -102 77 -35 22 -63 45 -63 50 0 5 -4 6 -10 3 -5 -3 -10 -2 -10 4 0 8 -22
20 -50 26 -3 1 -25 7 -50 15 -26 7 -104 14 -182 15 -75 2 -141 6 -147 9 -6 4
-11 4 -11 -1 0 -4 -32 -8 -72 -7 -40 0 -93 -3 -118 -8 -25 -5 -58 -11 -74 -14
-16 -2 -37 -9 -46 -14 -10 -5 -20 -7 -22 -4 -6 5 -100 -28 -173 -61 -27 -13
-77 -35 -110 -49 -33 -15 -62 -32 -66 -37 -13 -22 -89 -23 -137 -1 -63 27 -85
35 -94 34 -5 -1 -8 3 -8 9 0 5 -4 7 -10 4 -5 -3 -10 -1 -10 4 0 6 -3 10 -7 9
-5 -1 -30 9 -58 22 -27 13 -52 24 -55 25 -3 0 -15 6 -27 13 -13 7 -23 10 -23
6 0 -3 -6 -2 -12 3 -12 9 -121 53 -133 53 -3 0 -7 1 -10 1 -3 1 -9 3 -15 4 -5
1 -11 3 -12 4 -2 2 -14 4 -28 7 -135 22 -163 28 -285 59 -55 14 -120 28 -145
30 -40 5 -103 15 -165 28 -11 3 -46 8 -79 12 -32 3 -70 9 -85 12 -14 3 -35 6
-46 8 -11 1 -31 5 -45 8 -72 17 -205 22 -605 22 -368 0 -442 2 -455 14 -8 8
-14 17 -13 20 2 10 -11 27 -37 44 -13 9 -22 17 -18 17 3 0 -28 34 -70 75 -42
41 -80 75 -86 75 -5 0 -6 3 -3 7 7 7 -115 93 -133 93 -5 0 -10 5 -10 12 0 6
-3 9 -6 5 -4 -3 -12 -1 -20 6 -25 22 -40 32 -53 35 -7 1 -20 9 -28 17 -8 9
-19 13 -24 10 -5 -4 -9 -2 -9 3 0 7 -46 26 -92 38 -5 1 -9 2 -10 4 -5 3 -43 9
-83 12 -22 2 -43 6 -46 11 -3 4 -8 4 -12 1z"/>
</g>
</svg>
