<?xml version="1.0" encoding="utf-8"?>
<!-- Generator: Adobe Illustrator 16.0.0, SVG Export Plug-In . SVG Version: 6.00 Build 0)  -->
<!DOCTYPE svg PUBLIC "-//W3C//DTD SVG 1.1//EN" "http://www.w3.org/Graphics/SVG/1.1/DTD/svg11.dtd">
<svg version="1.1" id="Layer_1" xmlns="http://www.w3.org/2000/svg" xmlns:xlink="http://www.w3.org/1999/xlink" x="0px" y="0px"
	 width="941.5px" height="161.5px" viewBox="0 0 941.5 161.5" enable-background="new 0 0 941.5 161.5" xml:space="preserve">
<path fill="#FFFFFF" d="M19.188,1.821c-11.28,0-19.199,8.64-19.199,19.92V139.58c0,11.28,7.919,19.92,19.199,19.92
	s19.2-8.64,19.2-19.92V21.741C38.388,10.461,30.468,1.821,19.188,1.821z"/>
<path fill="#FFFFFF" d="M179.988,1.821c-11.28,0-19.2,8.64-19.2,19.92V90.86L98.148,10.701c-4.8-5.76-9.36-8.88-16.32-8.88
	c-11.28,0-19.2,8.64-19.2,19.92V139.58c0,11.28,7.92,19.92,19.2,19.92s19.2-8.64,19.2-19.92V73.341l63.839,79.439
	c3.6,4.32,8.64,6.72,15.12,6.72c11.28,0,19.2-8.64,19.2-19.92V21.741C199.188,10.461,191.268,1.821,179.988,1.821z"/>
<path fill="#FFFFFF" d="M307.187,1.821h-65.759c-11.28,0-19.2,8.64-19.2,19.92V139.58c0,11.28,7.92,19.92,19.2,19.92
	c11.28,0,19.2-8.64,19.2-19.92V38.061h46.56c11.28,0,19.2-7.2,19.2-18C326.386,9.501,318.466,1.821,307.187,1.821z M296.146,66.861
	h-7.2c-11.28,0-19.2,7.2-19.2,18.24c0,11.28,7.92,18.239,19.2,18.239h7.2c11.52,0,19.44-6.959,19.44-18.239
	C315.586,74.061,307.667,66.861,296.146,66.861z"/>
<path fill="#FFFFFF" d="M413.984,161.42c47.52,0,81.359-33.359,81.359-80.399c0-47.279-34.08-81.119-81.359-81.119
	c-47.279,0-81.359,33.84-81.359,81.119C332.625,128.061,366.705,161.42,413.984,161.42z M413.984,124.94
	c-25.439,0-42.479-18.48-42.479-43.92c0-25.68,17.04-44.64,42.479-44.64c25.68,0,42.479,18.96,42.479,44.64
	C456.464,106.46,439.664,124.94,413.984,124.94z M413.984,93.98c7.92,0,13.44-5.76,13.44-13.2s-5.52-13.2-13.44-13.2
	c-7.68,0-13.2,5.76-13.2,13.2S406.305,93.98,413.984,93.98z"/>
<path fill="#FFFFFF" d="M632.862,1.821c-11.28,0-19.2,8.64-19.2,19.92V90.86l-62.639-80.159c-4.801-5.76-9.36-8.88-16.32-8.88
	c-11.28,0-19.2,8.64-19.2,19.92V139.58c0,11.28,7.92,19.92,19.2,19.92s19.2-8.64,19.2-19.92V73.341l63.839,79.439
	c3.601,4.32,8.64,6.72,15.12,6.72c11.28,0,19.2-8.64,19.2-19.92V21.741C652.062,10.461,644.143,1.821,632.862,1.821z"/>
<path fill="#FFFFFF" d="M766.061,123.261h-53.039v-85.2h51.84c11.279,0,19.199-7.44,19.199-18c0-10.8-7.92-18.24-19.199-18.24
	h-70.56c-11.279,0-19.199,8.64-19.199,19.92V139.58c0,11.28,7.92,19.92,19.199,19.92h71.759c11.28,0,19.2-7.439,19.2-18
	C785.261,130.7,777.341,123.261,766.061,123.261z M755.501,62.781h-15.36c-10.319,0-17.999,6.48-17.999,16.8
	s7.68,17.04,17.999,17.04h15.36c10.32,0,18-6.72,18-17.04S765.821,62.781,755.501,62.781z"/>
<path fill="#FFFFFF" d="M829.9,1.821h-12.24c-11.279,0-19.2,7.92-19.2,18.24s7.921,18,19.2,18h14.88
	c12.239,0,18.239,3.6,18.239,22.32v79.199c0,11.28,7.92,19.92,19.2,19.92s19.2-8.64,19.2-19.92V57.981
	C889.18,16.941,865.899,1.821,829.9,1.821z M922.539,1.821h-15.12c-11.04,0-19.199,7.92-19.199,18.24s8.159,18,19.199,18h15.12
	c11.04,0,19.2-7.68,19.2-18S933.579,1.821,922.539,1.821z"/>
</svg>
